[img]http://imgr.us/images/e3oa2zi5ngfzb10hni5y.jpg[/img]
General
Complete name                            : Here Comes The Boom 2012 720p BRRIP XVID AC3 - 26k.avi
Format                                   : AVI
Format/Info                              : Audio Video Interleave
Format profile                           : OpenDML
Format settings                          : rec
File size                                : 2.30 GiB
Duration                                 : 1h 44mn
Overall bit rate                         : 3 134 Kbps

Video
ID                                       : 0
Format                                   : MPEG-4 Visual
Format profile                           : Advanced Simple@L5
Format settings, BVOP                    : 2
Format settings, QPel                    : No
Format settings, GMC                     : No warppoints
Format settings, Matrix                  : Default (H.263)
Codec ID                                 : XVID
Codec ID/Hint                            : XviD
Duration                                 : 1h 44mn
Bit rate                                 : 2 808 Kbps
Width                                    : 1 280 pixels
Height                                   : 688 pixels
Display aspect ratio                     : 1.85:1
Frame rate                               : 23.976 fps
Color space                              : YUV
Chroma subsampling                       : 4:2:0
Bit depth                                : 8 bits
Scan type                                : Progressive
Compression mode                         : Lossy
Bits/(Pixel*Frame)                       : 0.133
Stream size                              : 2.06 GiB (90%)


Audio
ID                                       : 1
Format                                   : AC-3
Format/Info                              : Audio Coding 3
Mode extension                           : CM (complete main)
Format settings, Endianness              : Big
Codec ID                                 : 2000
Duration                                 : 1h 44mn
Bit rate mode                            : Constant
Bit rate                                 : 320 Kbps
Channel(s)                               : 6 channels
Channel positions                        : Front: L C R, Side: L R, LFE
Sampling rate                            : 48.0 KHz
Bit depth                                : 16 bits
Compression mode                         : Lossy
Stream size                              : 240 MiB (10%)
Alignment                                : Aligned on interleaves
Interleave, duration                     : 64 ms (1.53 video frames)
Interleave, preload duration             : 192 ms

Screens:
[img]http://i.imgur.com/BWKA7V2.jpg[/img]
[img]http://i.imgur.com/KpAK6KT.jpg[/img]
[img]http://i.imgur.com/U3fjbZ8.jpg[/img]
[IMG]http://i.imgur.com/RhL4pv6.jpg[/IMG]
[IMG]http://i.imgur.com/bHuzLJW.jpg[/IMG]
